<?xml version="1.0" encoding="utf-8"?>
<!-- Generator: Adobe Illustrator 21.1.0, SVG Export Plug-In . SVG Version: 6.00 Build 0)  -->
<svg version="1.1" id="Layer_1" xmlns="http://www.w3.org/2000/svg" xmlns:xlink="http://www.w3.org/1999/xlink" x="0px" y="0px"
	 viewBox="0 0 1280 600" style="enable-background:new 0 0 1280 600;" xml:space="preserve">
<style type="text/css">
	.st0{fill:#EAC700;}
	.st1{fill:#FEFEFE;}
</style>
<path class="st0" d="M1119,359.8c0-1.1,0.1-2.2,0.1-3.3c0-36.8,0-73.6,0-110.4c0-3.5-0.5-3.1,3.2-3.1c38.2,0,76.3,0,114.5,0
	c3.6,0,3.1-0.4,3.1,3.2c0,50.7,0,101.5,0,152.2c0,3.4,0.5,3-3,3c-38.2,0.1-76.5,0.2-114.7,0.3c-3.4,0-3,0.4-3.1-3
	c0-2.7-0.1-5.3-0.1-8c0-6.2,0.1-12.5,0.1-18.7C1119.1,368,1119,363.9,1119,359.8z M1212.3,310.7c-2,0.2-3.6,0.3-5.2,0.5
	c-8.4,0.9-16.8,1.8-25.2,2.9c-1.8,0.2-2.9-0.3-4.1-1.7c-4.4-5.4-11.8-6.8-17.9-3.7c-6.1,3.2-9.3,10.3-7.5,16.9
	c1.6,5.8,5.4,9.5,11.2,10.8c5.6,1.2,10.5-0.5,14.3-5c1-1.2,1.9-1.7,3.4-1.5c3.9,0.5,7.8,0.9,11.7,1.3c5.9,0.6,11.7,1.2,17.6,1.8
	c1.2,0.1,1.7-0.2,1.6-1.5c-0.1-3.6,0-7.2,0-10.8C1212.3,317.6,1212.3,314.3,1212.3,310.7z"/>
<path class="st1" d="M340.4,266.4c-22,25.4-44,50.8-66.1,76.3c-22.2-25.6-44.3-50.9-66.4-76.4c-0.7,0.9-0.4,1.8-0.4,2.7
	c0,36.5,0,72.9,0,109.4c0,3.6,0,7.2,0,10.8c0,1-0.1,1.6-1.4,1.6c-10.1,0-20.2,0-30.3-0.1c-0.2,0-0.3-0.1-0.6-0.3c0-0.8,0-1.6,0-2.5
	c0-54.9,0-109.7,0-164.6c0-0.3,0-0.7,0-1c0-2-0.1-1.9,2-1.9c10.4,0,20.9,0,31.3,0c1.4,0,2.3,0.5,3.2,1.6
	c20.2,23.4,40.4,46.7,60.7,70.1c0.6,0.6,1.1,1.3,1.7,1.9c0.9-0.1,1.3-0.9,1.7-1.5c20.2-23.4,40.4-46.8,60.5-70.2
	c1.2-1.4,2.3-1.9,4.1-1.9c10.2,0.1,20.4,0,30.6,0c2.7,0,2.4-0.2,2.4,2.3c0,55.3,0,110.6,0,165.9c0,2.2,0,2.2-2.2,2.2
	c-9.3,0-18.7,0-28,0c-2.2,0-2.2,0-2.2-2.2c0-12.2,0-24.3,0-36.5c0-27.6,0-55.3,0-82.9c0-0.8,0-1.7,0-2.5
	C340.7,266.6,340.5,266.5,340.4,266.4z"/>
<path class="st1" d="M423.3,305.4c0-27.4,0-54.8,0-82.2c0-3-0.5-2.8,2.7-2.8c52.1,0,104.3,0,156.4,0c0.3,0,0.5,0,0.8,0
	c1.8,0,1.8,0,1.8,1.8c0,5.6,0,11.3,0,16.9c0,3.3,0,6.7,0,10c0,2.5,0.3,2.4-2.5,2.4c-0.5,0-1,0-1.5,0c-40.7,0-81.3,0-122,0
	c-3.6,0-3.1-0.4-3.1,3.2c0,10.8,0,21.6,0,32.4c0,3.1-0.4,2.7,2.7,2.7c32.6,0,65.2,0,97.8,0c0.5,0,1,0,1.5,0c1.9,0,1.9,0,1.9,2
	c0,9.2,0,18.3,0,27.5c0,1.8,0,1.8-1.8,1.8c-9.5,0-19,0-28.5,0c-23.6,0-47.2,0-70.9,0c-3,0-2.8-0.4-2.8,2.7c0,11,0,21.9,0,32.9
	c0,0.3,0,0.5,0,0.8c0,2,0,2,1.9,2c0.5,0,1,0,1.5,0c40.7,0,81.5,0,122.2,0c0.6,0,1.2,0.1,1.8,0c1.4-0.2,1.7,0.5,1.7,1.8
	c0,9.2-0.1,18.5,0,27.7c0,1.4-0.4,1.9-1.7,1.7c-0.6-0.1-1.2,0-1.8,0c-51.6,0-103.2,0-154.8,0c-3.3,0-3.3,0-3.3-3.2
	C423.3,360.2,423.3,332.8,423.3,305.4z"/>
<path class="st1" d="M901.8,390.8c-17.4,0-34.7,0-52.1,0c-11.1,0-20-4.4-27-13c-4.1-5.1-6.4-10.9-6.7-17.4c-0.1-1-0.1-2.1-0.1-3.1
	c0-23.4,0.1-46.9,0-70.3c0-11.8,5-20.9,14.5-27.6c5.8-4.2,12.5-5.9,19.6-5.9c22.1,0,44.2,0,66.2,0c4.8,0,9.6-0.2,14.4,0.3
	c13.8,1.3,29.3,14.2,29.2,32.5c-0.1,16.3,0,32.7,0,49c0,2.7,0.2,2.4-2.5,2.4c-27,0-54.1,0-81.1,0c-8.5,0-16.9,0-25.4,0
	c-3,0-2.7-0.4-2.7,2.8c0,5.3,0,10.6,0,15.9c0,3.3,0,3.3,3.3,3.3c35,0,70,0,105,0c3.5,0,3.5,0,3.5,3.5c0,8.4,0,16.8,0,25.2
	c0,2.3,0,2.3-2.4,2.3C938.8,390.8,920.3,390.8,901.8,390.8z M887.8,306.5c11.5,0,23.1,0,34.6,0c1.3,0,2.6,0,3.8,0
	c0.9,0,1.4-0.2,1.4-1.2c0-6.2,0-12.5,0-18.7c0-1.6-0.3-1.9-2-2c-0.6,0-1.2,0-1.8,0c-24,0-48.1,0-72.1,0c-0.5,0-1,0-1.5,0
	c-2,0.1-2.2,0.3-2.3,2.2c0,6.1,0,12.1,0,18.2c0,1,0.2,1.6,1.4,1.5c0.6-0.1,1.2,0,1.8,0C863.3,306.5,875.6,306.5,887.8,306.5z"/>
<path class="st1" d="M717.3,284.6c-17.4,0-34.7,0-52.1,0c-0.7,0-1.4,0-2.1,0c-1.6,0.1-2,0.4-2,2c0,6,0,12,0,18
	c0,1.3,0.5,1.9,1.8,1.9c0.8,0,1.5,0,2.3,0c24.2,0,48.4,0,72.7,0c3.5,0,7,0.2,10.4,1.1c14.6,3.9,24.6,16.7,24.6,31.8
	c0,5.8-0.2,11.6,0,17.5c0.7,18.7-15,34.1-33.4,33.9c-4.9-0.1-9.8,0-14.6,0c-20.6,0-41.3,0-61.9,0c-11.2,0-20.2-4.4-27.2-13.1
	c-3.8-4.6-5.9-10-6.6-15.9c-0.2-1.8-0.2-1.9,1.7-1.9c0.3,0,0.7,0,1,0c35.1,0,70.2-0.1,105.3-0.1c3.7,0,3.7,0,3.7-3.7
	c0-5.1,0-10.3,0-15.4c0-2.7-0.2-2.9-2.9-2.9c-12.9,0-25.8,0-38.8,0c-12.2,0-24.3,0-36.5,0c-11,0-19.9-4.4-26.8-12.8
	c-4.6-5.6-6.8-12-6.9-19.2c-0.1-6.6,0-13.2,0-19.8c-0.1-17,13.4-28.8,25.4-31.5c2.8-0.6,5.6-1,8.4-1c25.4,0,50.8,0,76.3,0
	c14.6,0,27.3,8.7,32,21.9c0.9,2.5,1.3,5.1,1.7,7.7c0.2,1.1-0.2,1.6-1.4,1.5c-0.6-0.1-1.2,0-1.8,0
	C752.2,284.6,734.8,284.6,717.3,284.6C717.3,284.6,717.3,284.6,717.3,284.6z"/>
<path class="st1" d="M72.9,304c0-17.4,0-34.7,0-52.1c0-0.3,0-0.7,0-1c0-2.7,0.2-2.5-2.5-2.5c-8,0-16.1,0-24.1,0c-2,0-2.1,0-2.1-2.1
	c0-9.1,0-18.1,0-27.2c0-2.1,0-2.1,2.1-2.1c13.9,0,27.7,0,41.6,0c13.8,0,27.6,0,41.3,0c0.6,0,1.2,0,1.8,0c0.8,0,1.1,0.4,1,1.1
	c0,0.4,0,0.9,0,1.3c0,8.9,0,17.8,0,26.7c0,2.5,0.2,2.3-2.4,2.3c-7.4,0-14.9,0-22.3,0c-2.2,0-2.2,0-2.2,2.2c0,35.6,0,71.2,0,106.8
	c0,2.2,0,2.2,2.2,2.2c7.5,0,15.1,0,22.6,0c2.3,0,2.1,0,2.1,2.1c0,9.1,0,18.1,0,27.2c0,2.3,0.1,2.2-2.3,2.2c-7.2,0-14.4,0-21.6,0
	c-20.3,0-40.6,0-60.9,0c-0.7,0-1.4,0-2.1,0c-0.8,0-1.1-0.3-1-1.1c0-0.3,0-0.7,0-1c0-9.1,0-18.1,0-27.2c0-2.1,0-2.1,2.1-2.1
	c8.1,0,16.3,0,24.4,0c2.2,0,2.2,0,2.2-2.2C72.9,339.6,72.9,321.8,72.9,304z"/>
<path class="st1" d="M1119,359.8c0,4.1,0.1,8.2,0.1,12.3c0,6.2-0.1,12.5-0.1,18.7c-27,0-54.1,0-81.1,0c-3.3,0-6.5,0-9.7-1
	c-13.3-3.9-22-12.4-24.8-26.2c-0.4-1.9-0.4-3.7-0.4-5.6c0-23.9,0.2-47.8-0.1-71.6c-0.2-17.8,14.9-31.2,29.1-32.5
	c2-0.2,3.9-0.3,5.9-0.3c16.9,0,33.7,0,50.6,0c0.3,0,0.7,0,1,0c1.9,0,1.9,0,1.9,2c0,8.9,0,17.8,0,26.7c0,2.4,0.2,2.3-2.4,2.3
	c-16.7,0-33.4,0-50.1,0c-4.7,0-4,0.3-4,4.1c0,22.3,0,44.7,0,67c0,0.6,0,1.2,0,1.8c0.1,2.1,0.3,2.3,2.4,2.3c6,0,12,0,18,0
	C1076.5,359.8,1097.8,359.8,1119,359.8z"/>
</svg>
